<svg width="131" height="68" viewBox="0 0 131 68" fill="none" xmlns="http://www.w3.org/2000/svg">
<line y1="1" x2="66" y2="1" stroke="white" stroke-width="2"/>
<line x1="2" y1="67" x2="68" y2="67" stroke="white" stroke-width="2"/>
<line x1="1" y1="68" x2="1" y2="2" stroke="white" stroke-width="2"/>
<line x1="66" y1="17" x2="66" y2="-4.37114e-08" stroke="white" stroke-width="2"/>
<line x1="67" y1="68" x2="67" y2="51" stroke="white" stroke-width="2"/>
<path d="M16.331 22.2173H14.7372C14.6918 21.956 14.608 21.7244 14.4858 21.5227C14.3636 21.3182 14.2116 21.1449 14.0298 21.0028C13.848 20.8608 13.6406 20.7543 13.4077 20.6832C13.1776 20.6094 12.929 20.5724 12.6619 20.5724C12.1875 20.5724 11.767 20.6918 11.4006 20.9304C11.0341 21.1662 10.7472 21.5128 10.5398 21.9702C10.3324 22.4247 10.2287 22.9801 10.2287 23.6364C10.2287 24.304 10.3324 24.8665 10.5398 25.3239C10.75 25.7784 11.0369 26.1222 11.4006 26.3551C11.767 26.5852 12.1861 26.7003 12.6577 26.7003C12.919 26.7003 13.1634 26.6662 13.3906 26.598C13.6207 26.527 13.8267 26.4233 14.0085 26.2869C14.1932 26.1506 14.348 25.983 14.473 25.7841C14.6009 25.5852 14.6889 25.358 14.7372 25.1023L16.331 25.1108C16.2713 25.5256 16.142 25.9148 15.9432 26.2784C15.7472 26.642 15.4901 26.9631 15.1719 27.2415C14.8537 27.517 14.4815 27.733 14.0554 27.8892C13.6293 28.0426 13.1563 28.1193 12.6364 28.1193C11.8693 28.1193 11.1847 27.9418 10.5824 27.5866C9.98011 27.2315 9.50568 26.7188 9.15909 26.0483C8.8125 25.3778 8.6392 24.5739 8.6392 23.6364C8.6392 22.696 8.81392 21.892 9.16335 21.2244C9.51278 20.554 9.98864 20.0412 10.5909 19.6861C11.1932 19.331 11.875 19.1534 12.6364 19.1534C13.1222 19.1534 13.5739 19.2216 13.9915 19.358C14.4091 19.4943 14.7813 19.6946 15.108 19.9588C15.4347 20.2202 15.7031 20.5412 15.9134 20.9219C16.1264 21.2997 16.2656 21.7315 16.331 22.2173ZM18.794 28H17.1065L20.179 19.2727H22.1307L25.2074 28H23.5199L21.1889 21.0625H21.1207L18.794 28ZM18.8494 24.5781H23.4517V25.848H18.8494V24.5781ZM26.3569 28V19.2727H27.9379V26.6747H31.7816V28H26.3569ZM33.419 19.2727L35.6903 26.142H35.7798L38.0469 19.2727H39.7855L36.7088 28H34.7571L31.6847 19.2727H33.419ZM42.516 19.2727V28H40.935V19.2727H42.516ZM51.3999 19.2727V28H49.9936L45.8814 22.0554H45.8089V28H44.228V19.2727H45.6428L49.7507 25.2216H49.8274V19.2727H51.3999ZM56.0991 28V19.2727H57.68V22.9673H61.7241V19.2727H63.3093V28H61.7241V24.2926H57.68V28H56.0991ZM66.1495 28H64.462L67.5344 19.2727H69.4862L72.5629 28H70.8754L68.5444 21.0625H68.4762L66.1495 28ZM66.2049 24.5781H70.8072V25.848H66.2049V24.5781ZM73.7124 28V19.2727H76.9851C77.6555 19.2727 78.218 19.3892 78.6726 19.6222C79.13 19.8551 79.4751 20.1818 79.7081 20.6023C79.9439 21.0199 80.0618 21.5071 80.0618 22.0639C80.0618 22.6236 79.9425 23.1094 79.7038 23.5213C79.468 23.9304 79.12 24.2472 78.6598 24.4716C78.1996 24.6932 77.6342 24.804 76.9638 24.804H74.6328V23.4915H76.7507C77.1428 23.4915 77.4638 23.4375 77.7138 23.3295C77.9638 23.2187 78.1484 23.0582 78.2678 22.848C78.3899 22.6349 78.451 22.3736 78.451 22.0639C78.451 21.7543 78.3899 21.4901 78.2678 21.2713C78.1456 21.0497 77.9595 20.8821 77.7095 20.7685C77.4595 20.652 77.1371 20.5938 76.7422 20.5938H75.2933V28H73.7124ZM78.2209 24.0455L80.3814 28H78.6172L76.495 24.0455H78.2209ZM84.4744 28H81.517V19.2727H84.5341C85.4006 19.2727 86.1449 19.4474 86.767 19.7969C87.392 20.1435 87.8722 20.642 88.2074 21.2926C88.5426 21.9432 88.7102 22.7216 88.7102 23.6278C88.7102 24.5369 88.5412 25.3182 88.2031 25.9716C87.8679 26.625 87.3835 27.1264 86.75 27.4759C86.1193 27.8253 85.3608 28 84.4744 28ZM83.098 26.6321H84.3977C85.0057 26.6321 85.5128 26.5213 85.919 26.2997C86.3253 26.0753 86.6307 25.7415 86.8352 25.2983C87.0398 24.8523 87.142 24.2955 87.142 23.6278C87.142 22.9602 87.0398 22.4062 86.8352 21.9659C86.6307 21.5227 86.3281 21.1918 85.9276 20.973C85.5298 20.7514 85.0355 20.6406 84.4446 20.6406H83.098V26.6321ZM91.8263 28L89.3633 19.2727H91.0636L92.636 25.6861H92.717L94.396 19.2727H95.9428L97.6261 25.6903H97.7028L99.2752 19.2727H100.975L98.5124 28H96.9528L95.2056 21.8764H95.1374L93.386 28H91.8263ZM109.401 23.6364C109.401 24.5767 109.225 25.3821 108.873 26.0526C108.523 26.7202 108.046 27.2315 107.441 27.5866C106.839 27.9418 106.156 28.1193 105.391 28.1193C104.627 28.1193 103.942 27.9418 103.337 27.5866C102.735 27.2287 102.258 26.7159 101.906 26.0483C101.556 25.3778 101.381 24.5739 101.381 23.6364C101.381 22.696 101.556 21.892 101.906 21.2244C102.258 20.554 102.735 20.0412 103.337 19.6861C103.942 19.331 104.627 19.1534 105.391 19.1534C106.156 19.1534 106.839 19.331 107.441 19.6861C108.046 20.0412 108.523 20.554 108.873 21.2244C109.225 21.892 109.401 22.696 109.401 23.6364ZM107.812 23.6364C107.812 22.9744 107.708 22.4162 107.501 21.9616C107.296 21.5043 107.012 21.1591 106.648 20.9261C106.285 20.6903 105.866 20.5724 105.391 20.5724C104.917 20.5724 104.498 20.6903 104.134 20.9261C103.771 21.1591 103.485 21.5043 103.278 21.9616C103.073 22.4162 102.971 22.9744 102.971 23.6364C102.971 24.2983 103.073 24.858 103.278 25.3153C103.485 25.7699 103.771 26.1151 104.134 26.3509C104.498 26.5838 104.917 26.7003 105.391 26.7003C105.866 26.7003 106.285 26.5838 106.648 26.3509C107.012 26.1151 107.296 25.7699 107.501 25.3153C107.708 24.858 107.812 24.2983 107.812 23.6364ZM118.694 23.6364C118.694 24.5767 118.518 25.3821 118.166 26.0526C117.816 26.7202 117.339 27.2315 116.734 27.5866C116.132 27.9418 115.449 28.1193 114.684 28.1193C113.92 28.1193 113.235 27.9418 112.63 27.5866C112.028 27.2287 111.551 26.7159 111.199 26.0483C110.849 25.3778 110.674 24.5739 110.674 23.6364C110.674 22.696 110.849 21.892 111.199 21.2244C111.551 20.554 112.028 20.0412 112.63 19.6861C113.235 19.331 113.92 19.1534 114.684 19.1534C115.449 19.1534 116.132 19.331 116.734 19.6861C117.339 20.0412 117.816 20.554 118.166 21.2244C118.518 21.892 118.694 22.696 118.694 23.6364ZM117.105 23.6364C117.105 22.9744 117.001 22.4162 116.794 21.9616C116.589 21.5043 116.305 21.1591 115.941 20.9261C115.578 20.6903 115.159 20.5724 114.684 20.5724C114.21 20.5724 113.791 20.6903 113.427 20.9261C113.064 21.1591 112.778 21.5043 112.571 21.9616C112.366 22.4162 112.264 22.9744 112.264 23.6364C112.264 24.2983 112.366 24.858 112.571 25.3153C112.778 25.7699 113.064 26.1151 113.427 26.3509C113.791 26.5838 114.21 26.7003 114.684 26.7003C115.159 26.7003 115.578 26.5838 115.941 26.3509C116.305 26.1151 116.589 25.7699 116.794 25.3153C117.001 24.858 117.105 24.2983 117.105 23.6364ZM123.146 28H120.189V19.2727H123.206C124.072 19.2727 124.817 19.4474 125.439 19.7969C126.064 20.1435 126.544 20.642 126.879 21.2926C127.214 21.9432 127.382 22.7216 127.382 23.6278C127.382 24.5369 127.213 25.3182 126.875 25.9716C126.54 26.625 126.055 27.1264 125.422 27.4759C124.791 27.8253 124.033 28 123.146 28ZM121.77 26.6321H123.07C123.678 26.6321 124.185 26.5213 124.591 26.2997C124.997 26.0753 125.303 25.7415 125.507 25.2983C125.712 24.8523 125.814 24.2955 125.814 23.6278C125.814 22.9602 125.712 22.4062 125.507 21.9659C125.303 21.5227 125 21.1918 124.599 20.973C124.202 20.7514 123.707 20.6406 123.116 20.6406H121.77V26.6321Z" fill="white"/>
<path d="M9.72159 49V31.5455H20.9034V34.196H12.8835V38.9347H20.1364V41.5852H12.8835V49H9.72159ZM23.7841 49V31.5455H26.946V46.3494H34.6335V49H23.7841ZM52.2947 40.2727C52.2947 42.1534 51.9425 43.7642 51.2379 45.1051C50.5391 46.4403 49.5845 47.4631 48.3743 48.1733C47.1697 48.8835 45.8033 49.2386 44.2749 49.2386C42.7464 49.2386 41.3771 48.8835 40.1669 48.1733C38.9624 47.4574 38.0078 46.4318 37.3033 45.0966C36.6044 43.7557 36.255 42.1477 36.255 40.2727C36.255 38.392 36.6044 36.7841 37.3033 35.4489C38.0078 34.108 38.9624 33.0824 40.1669 32.3722C41.3771 31.6619 42.7464 31.3068 44.2749 31.3068C45.8033 31.3068 47.1697 31.6619 48.3743 32.3722C49.5845 33.0824 50.5391 34.108 51.2379 35.4489C51.9425 36.7841 52.2947 38.392 52.2947 40.2727ZM49.1158 40.2727C49.1158 38.9489 48.9084 37.8324 48.4936 36.9233C48.0845 36.0085 47.5163 35.3182 46.7891 34.8523C46.0618 34.3807 45.2237 34.1449 44.2749 34.1449C43.326 34.1449 42.4879 34.3807 41.7607 34.8523C41.0334 35.3182 40.4624 36.0085 40.0476 36.9233C39.6385 37.8324 39.4339 38.9489 39.4339 40.2727C39.4339 41.5966 39.6385 42.7159 40.0476 43.6307C40.4624 44.5398 41.0334 45.2301 41.7607 45.7017C42.4879 46.1676 43.326 46.4006 44.2749 46.4006C45.2237 46.4006 46.0618 46.1676 46.7891 45.7017C47.5163 45.2301 48.0845 44.5398 48.4936 43.6307C48.9084 42.7159 49.1158 41.5966 49.1158 40.2727ZM70.8807 40.2727C70.8807 42.1534 70.5284 43.7642 69.8239 45.1051C69.125 46.4403 68.1705 47.4631 66.9602 48.1733C65.7557 48.8835 64.3892 49.2386 62.8608 49.2386C61.3324 49.2386 59.9631 48.8835 58.7528 48.1733C57.5483 47.4574 56.5938 46.4318 55.8892 45.0966C55.1903 43.7557 54.8409 42.1477 54.8409 40.2727C54.8409 38.392 55.1903 36.7841 55.8892 35.4489C56.5938 34.108 57.5483 33.0824 58.7528 32.3722C59.9631 31.6619 61.3324 31.3068 62.8608 31.3068C64.3892 31.3068 65.7557 31.6619 66.9602 32.3722C68.1705 33.0824 69.125 34.108 69.8239 35.4489C70.5284 36.7841 70.8807 38.392 70.8807 40.2727ZM67.7017 40.2727C67.7017 38.9489 67.4943 37.8324 67.0795 36.9233C66.6705 36.0085 66.1023 35.3182 65.375 34.8523C64.6477 34.3807 63.8097 34.1449 62.8608 34.1449C61.9119 34.1449 61.0739 34.3807 60.3466 34.8523C59.6193 35.3182 59.0483 36.0085 58.6335 36.9233C58.2244 37.8324 58.0199 38.9489 58.0199 40.2727C58.0199 41.5966 58.2244 42.7159 58.6335 43.6307C59.0483 44.5398 59.6193 45.2301 60.3466 45.7017C61.0739 46.1676 61.9119 46.4006 62.8608 46.4006C63.8097 46.4006 64.6477 46.1676 65.375 45.7017C66.1023 45.2301 66.6705 44.5398 67.0795 43.6307C67.4943 42.7159 67.7017 41.5966 67.7017 40.2727ZM73.87 49V31.5455H80.4155C81.7564 31.5455 82.8814 31.7784 83.7905 32.2443C84.7053 32.7102 85.3956 33.3636 85.8615 34.2045C86.3331 35.0398 86.5689 36.0142 86.5689 37.1278C86.5689 38.2472 86.3303 39.2187 85.853 40.0426C85.3814 40.8608 84.6854 41.4943 83.7649 41.9432C82.8445 42.3864 81.7138 42.608 80.3729 42.608H75.7109V39.983H79.9467C80.7308 39.983 81.3729 39.875 81.8729 39.6591C82.3729 39.4375 82.7422 39.1165 82.9808 38.696C83.2251 38.2699 83.3473 37.7472 83.3473 37.1278C83.3473 36.5085 83.2251 35.9801 82.9808 35.5426C82.7365 35.0994 82.3643 34.7642 81.8643 34.5369C81.3643 34.304 80.7195 34.1875 79.9297 34.1875H77.032V49H73.87ZM82.8871 41.0909L87.2081 49H83.6797L79.4354 41.0909H82.8871ZM92.6413 31.5455V49H89.4794V31.5455H92.6413ZM110.409 31.5455V49H107.597L99.3722 37.1108H99.2273V49H96.0653V31.5455H98.8949L107.111 43.4432H107.264V31.5455H110.409ZM125.548 37.1193C125.406 36.6591 125.21 36.2472 124.96 35.8835C124.715 35.5142 124.42 35.1989 124.073 34.9375C123.732 34.6761 123.34 34.4801 122.897 34.3494C122.454 34.2131 121.971 34.1449 121.448 34.1449C120.511 34.1449 119.675 34.3807 118.942 34.8523C118.21 35.3239 117.633 36.017 117.212 36.9318C116.798 37.8409 116.59 38.9489 116.59 40.2557C116.59 41.5739 116.798 42.6903 117.212 43.6051C117.627 44.5199 118.204 45.2159 118.942 45.6932C119.681 46.1648 120.539 46.4006 121.516 46.4006C122.403 46.4006 123.17 46.2301 123.817 45.8892C124.471 45.5483 124.974 45.0653 125.326 44.4403C125.678 43.8097 125.854 43.071 125.854 42.2244L126.57 42.3352H121.832V39.8636H128.914V41.9602C128.914 43.4545 128.596 44.7472 127.96 45.8381C127.323 46.929 126.448 47.7699 125.335 48.3608C124.221 48.946 122.942 49.2386 121.499 49.2386C119.891 49.2386 118.479 48.8778 117.263 48.1562C116.053 47.429 115.107 46.3977 114.425 45.0625C113.749 43.7216 113.411 42.1307 113.411 40.2898C113.411 38.8807 113.61 37.6222 114.008 36.5142C114.411 35.4062 114.974 34.4659 115.695 33.6932C116.417 32.9148 117.263 32.3239 118.235 31.9205C119.207 31.5114 120.263 31.3068 121.406 31.3068C122.371 31.3068 123.272 31.4489 124.107 31.733C124.942 32.0114 125.684 32.4091 126.332 32.9261C126.985 33.4432 127.522 34.0568 127.942 34.767C128.363 35.4773 128.638 36.2614 128.769 37.1193H125.548Z" fill="white"/>
</svg>
